<svg xmlns="http://www.w3.org/2000/svg"><defs><symbol id="p_bg_wall_flat" viewBox="0 0 1600 900"><rect x="0" y="0" width="1600" height="900" fill="var(--c-wall)"/><rect x="90" y="80" width="180" height="260" rx="24" fill="var(--c-wall2)" transform="rotate(8 180 210)"/><rect x="1330" y="120" width="200" height="300" rx="24" fill="var(--c-wall2)" transform="rotate(-7 1430 270)"/><rect x="620" y="-60" width="220" height="240" rx="24" fill="var(--c-wall2)" transform="rotate(12 730 60)"/><rect x="200" y="700" width="220" height="260" rx="24" fill="var(--c-wall2)" transform="rotate(-10 310 830)"/><rect x="1180" y="720" width="240" height="240" rx="24" fill="var(--c-wall2)" transform="rotate(9 1300 840)"/></symbol><symbol id="p_bg_decor_l_shelf" viewBox="0 0 1600 900"><rect x="296" y="182" width="14" height="150" fill="var(--c-dark)"/><rect x="510" y="182" width="14" height="150" fill="var(--c-dark)"/><rect x="280" y="216" width="260" height="18" rx="4" fill="var(--c-desk)"/><rect x="280" y="318" width="260" height="18" rx="4" fill="var(--c-desk)"/><rect x="300" y="286" width="90" height="14" rx="3" fill="var(--c-accent)"/><rect x="306" y="272" width="78" height="14" rx="3" fill="var(--c-white)"/><rect x="430" y="256" width="46" height="62" rx="6" fill="var(--c-dark)"/><line x1="444" y1="258" x2="444" y2="234" stroke="var(--c-accent)" stroke-width="6" stroke-linecap="round"/><line x1="460" y1="258" x2="460" y2="228" stroke="var(--c-white)" stroke-width="6" stroke-linecap="round"/><rect x="318" y="186" width="56" height="40" rx="6" fill="var(--c-white)"/><circle cx="338" cy="202" r="7" fill="var(--c-accent)"/><circle cx="356" cy="210" r="5" fill="var(--c-desk)"/></symbol><symbol id="p_bg_decor_r_clock" viewBox="0 0 1600 900"><circle cx="1150" cy="210" r="58" fill="var(--c-white)"/><line x1="1150" y1="162" x2="1150" y2="174" stroke="var(--c-dark)" stroke-width="6"/><line x1="1150" y1="246" x2="1150" y2="258" stroke="var(--c-dark)" stroke-width="6"/><line x1="1102" y1="210" x2="1114" y2="210" stroke="var(--c-dark)" stroke-width="6"/><line x1="1186" y1="210" x2="1198" y2="210" stroke="var(--c-dark)" stroke-width="6"/><line x1="1150" y1="210" x2="1150" y2="178" stroke="var(--c-dark)" stroke-width="7" stroke-linecap="round"/><line x1="1150" y1="210" x2="1174" y2="222" stroke="var(--c-accent)" stroke-width="6" stroke-linecap="round"/></symbol><symbol id="p_desk_basic" viewBox="0 0 1600 900"><rect x="250" y="640" width="1100" height="60" rx="10" fill="var(--c-desk)"/></symbol><symbol id="p_prop_desk_a_laptop" viewBox="0 0 1600 900"><path d="M 352 640 L 388 468 L 566 468 L 548 640 Z" fill="var(--c-dark)"/><circle cx="462" cy="552" r="15" fill="var(--c-white)"/><rect x="330" y="628" width="240" height="14" rx="7" fill="var(--c-dark)"/></symbol><symbol id="p_prop_desk_b_cup" viewBox="0 0 1600 900"><path d="M 1152 584 L 1204 584 L 1197 640 L 1159 640 Z" fill="var(--c-dark)"/><path d="M 1204 594 Q 1232 598 1228 616 Q 1224 630 1200 628" fill="none" stroke="var(--c-dark)" stroke-width="9" stroke-linecap="round"/></symbol><symbol id="p_torso_tshirt_a" viewBox="0 0 1600 900"><path d="M 662 640 L 662 522 Q 662 434 748 420 L 852 420 Q 938 434 938 522 L 938 640 Z" fill="var(--c-shirt)"/><path d="M 756 420 Q 800 452 844 420 L 852 420 Q 812 466 788 466 Q 764 466 748 420 Z" fill="var(--c-shirt2)"/></symbol><symbol id="p_head_blank" viewBox="0 0 1600 900"><rect x="776" y="352" width="48" height="76" rx="14" fill="var(--c-skin)"/><circle cx="800" cy="290" r="85" fill="var(--c-skin)"/></symbol><symbol id="p_hair_short_a" viewBox="0 0 1600 900"><path d="M 712 262 Q 730 186 800 180 Q 872 186 888 262 Q 896 292 886 318 Q 878 254 800 246 Q 722 254 714 318 Q 704 292 712 262 Z" fill="var(--c-hair)"/></symbol><symbol id="p_glasses_round" viewBox="0 0 1600 900"><circle cx="758" cy="300" r="30" fill="none" stroke="var(--c-dark)" stroke-width="7"/><circle cx="842" cy="300" r="30" fill="none" stroke="var(--c-dark)" stroke-width="7"/><line x1="788" y1="298" x2="812" y2="298" stroke="var(--c-dark)" stroke-width="7" stroke-linecap="round"/><line x1="728" y1="296" x2="716" y2="290" stroke="var(--c-dark)" stroke-width="7" stroke-linecap="round"/><line x1="872" y1="296" x2="884" y2="290" stroke="var(--c-dark)" stroke-width="7" stroke-linecap="round"/></symbol><symbol id="p_arm_upper_L_tshirt" viewBox="0 0 1600 900"><line x1="695" y1="455" x2="635" y2="560" stroke="var(--c-shirt)" stroke-width="58" stroke-linecap="round"/><line x1="659" y1="518" x2="676" y2="528" stroke="var(--c-shirt2)" stroke-width="10" stroke-linecap="round"/></symbol><symbol id="p_arm_upper_R_tshirt" viewBox="0 0 1600 900"><line x1="905" y1="455" x2="965" y2="560" stroke="var(--c-shirt)" stroke-width="58" stroke-linecap="round"/><line x1="941" y1="518" x2="924" y2="528" stroke="var(--c-shirt2)" stroke-width="10" stroke-linecap="round"/></symbol><symbol id="p_forearm_L_skin" viewBox="0 0 1600 900"><line x1="635" y1="560" x2="760" y2="615" stroke="var(--c-skin)" stroke-width="44" stroke-linecap="round"/></symbol><symbol id="p_forearm_R_skin" viewBox="0 0 1600 900"><line x1="965" y1="560" x2="870" y2="615" stroke="var(--c-skin)" stroke-width="44" stroke-linecap="round"/></symbol><symbol id="p_hand_L_a" viewBox="0 0 1600 900"><circle cx="760" cy="615" r="27" fill="var(--c-skin)"/></symbol><symbol id="p_hand_R_a" viewBox="0 0 1600 900"><circle cx="870" cy="615" r="27" fill="var(--c-skin)"/></symbol><symbol id="p_prop_hand_phone" viewBox="0 0 1600 900"><rect x="796" y="544" width="68" height="120" rx="12" fill="var(--c-dark)"/><line x1="818" y1="558" x2="842" y2="558" stroke="var(--c-white)" stroke-width="6" stroke-linecap="round"/></symbol><symbol id="p_headwear_kufi" viewBox="0 0 1600 900"><path d="M 716 268 Q 716 186 800 182 Q 884 186 884 268 Q 800 244 716 268 Z" fill="var(--c-headwear)"/><path d="M 716 268 Q 800 244 884 268 L 884 282 Q 800 258 716 282 Z" fill="var(--c-dark)"/></symbol><symbol id="p_hair_short_b" viewBox="0 0 1600 900"><path d="M 718 268 Q 734 200 800 194 Q 866 200 882 268 Q 886 284 880 296 Q 868 254 800 248 Q 732 254 720 296 Q 714 284 718 268 Z" fill="var(--c-hair)"/></symbol><symbol id="p_hair_side_part" viewBox="0 0 1600 900"><path d="M 714 262 Q 728 192 800 184 Q 878 190 890 260 Q 894 288 886 308 Q 880 260 838 248 Q 806 270 762 260 Q 730 264 718 308 Q 708 286 714 262 Z" fill="var(--c-hair)"/></symbol><symbol id="p_torso_shirt_collar" viewBox="0 0 1600 900"><path d="M 662 640 L 662 522 Q 662 434 748 420 L 852 420 Q 938 434 938 522 L 938 640 Z" fill="var(--c-shirt)"/><path d="M 756 420 L 800 466 L 844 420 L 852 420 L 800 484 L 748 420 Z" fill="var(--c-shirt2)"/><rect x="794" y="466" width="12" height="174" fill="var(--c-shirt2)"/></symbol><symbol id="p_torso_thobe" viewBox="0 0 1600 900"><path d="M 640 640 L 650 470 Q 662 424 748 420 L 852 420 Q 938 424 950 470 L 960 640 Z" fill="var(--c-shirt)"/><rect x="786" y="424" width="28" height="96" rx="6" fill="var(--c-shirt2)"/><circle cx="800" cy="450" r="4" fill="var(--c-dark)"/><circle cx="800" cy="478" r="4" fill="var(--c-dark)"/><circle cx="800" cy="506" r="4" fill="var(--c-dark)"/></symbol><symbol id="p_torso_vest" viewBox="0 0 1600 900"><path d="M 662 640 L 662 522 Q 662 434 748 420 L 852 420 Q 938 434 938 522 L 938 640 Z" fill="var(--c-shirt2)"/><path d="M 692 640 L 692 502 Q 702 442 752 424 L 784 424 L 800 472 L 816 424 L 848 424 Q 898 442 908 502 L 908 640 Z" fill="var(--c-shirt)"/><circle cx="800" cy="536" r="4" fill="var(--c-dark)"/><circle cx="800" cy="572" r="4" fill="var(--c-dark)"/></symbol><symbol id="p_prop_desk_a_book" viewBox="0 0 1600 900"><rect x="368" y="588" width="164" height="16" rx="4" fill="var(--c-white)"/><rect x="360" y="598" width="180" height="42" rx="6" fill="var(--c-dark)"/><rect x="360" y="598" width="14" height="42" fill="var(--c-accent)"/></symbol><symbol id="p_prop_desk_b_tasbih" viewBox="0 0 1600 900"><circle cx="1133" cy="579" r="7" fill="var(--c-accent)"/><circle cx="1139" cy="568" r="7" fill="var(--c-accent)"/><circle cx="1147" cy="559" r="7" fill="var(--c-accent)"/><circle cx="1157" cy="552" r="7" fill="var(--c-accent)"/><circle cx="1168" cy="547" r="7" fill="var(--c-accent)"/><circle cx="1180" cy="546" r="7" fill="var(--c-accent)"/><circle cx="1192" cy="547" r="7" fill="var(--c-accent)"/><circle cx="1203" cy="552" r="7" fill="var(--c-accent)"/><circle cx="1213" cy="559" r="7" fill="var(--c-accent)"/><circle cx="1221" cy="568" r="7" fill="var(--c-accent)"/><circle cx="1227" cy="579" r="7" fill="var(--c-accent)"/><line x1="1230" y1="606" x2="1230" y2="634" stroke="var(--c-accent)" stroke-width="5" stroke-linecap="round"/></symbol><symbol id="p_legs_pants" viewBox="0 0 1600 900"><path d="M 706 470 Q 800 462 894 470 L 892 566 Q 800 580 708 566 Z" fill="var(--c-pants)"/><rect x="722" y="548" width="66" height="286" rx="30" fill="var(--c-pants)"/><rect x="812" y="548" width="66" height="286" rx="30" fill="var(--c-pants)"/></symbol><symbol id="p_legs_thobe_long" viewBox="0 0 1600 900"><path d="M 704 470 Q 800 462 896 470 L 910 836 Q 800 852 690 836 Z" fill="var(--c-shirt)"/><path d="M 690 828 Q 800 844 910 828 L 910 836 Q 800 852 690 836 Z" fill="var(--c-shirt2)"/></symbol><symbol id="p_shoes_basic" viewBox="0 0 1600 900"><path d="M 716 830 L 788 830 L 788 858 L 706 858 Q 698 858 698 850 L 698 844 Q 698 834 710 831 Z" fill="var(--c-shoes)"/><path d="M 812 830 L 884 830 L 890 831 Q 902 834 902 844 L 902 850 Q 902 858 894 858 L 812 858 Z" fill="var(--c-shoes)"/></symbol><symbol id="p_torso_suit_tie" viewBox="0 0 1600 900"><path d="M 662 640 L 662 522 Q 662 434 748 420 L 852 420 Q 938 434 938 522 L 938 640 Z" fill="var(--c-shirt2)"/><path d="M 766 420 L 800 508 L 834 420 Z" fill="var(--c-white)"/><path d="M 766 420 L 800 478 L 784 424 Z" fill="var(--c-dark)"/><path d="M 834 420 L 800 478 L 816 424 Z" fill="var(--c-dark)"/><path d="M 793 424 L 807 424 L 810 474 L 800 506 L 790 474 Z" fill="var(--c-accent)"/></symbol><symbol id="p_torso_coat_medic" viewBox="0 0 1600 900"><path d="M 662 640 L 662 522 Q 662 434 748 420 L 852 420 Q 938 434 938 522 L 938 640 Z" fill="var(--c-white)"/><rect x="778" y="420" width="44" height="220" fill="var(--c-shirt)"/><path d="M 778 420 L 778 640 L 762 640 L 770 470 Z" fill="var(--c-shirt2)"/><path d="M 822 420 L 822 640 L 838 640 L 830 470 Z" fill="var(--c-shirt2)"/><rect x="690" y="560" width="44" height="52" rx="6" fill="var(--c-shirt2)"/><rect x="866" y="560" width="44" height="52" rx="6" fill="var(--c-shirt2)"/></symbol><symbol id="p_torso_apron" viewBox="0 0 1600 900"><path d="M 662 640 L 662 522 Q 662 434 748 420 L 852 420 Q 938 434 938 522 L 938 640 Z" fill="var(--c-shirt)"/><path d="M 788 424 L 812 424 L 808 468 L 792 468 Z" fill="var(--c-accent)"/><path d="M 728 468 L 872 468 L 860 640 L 740 640 Z" fill="var(--c-accent)"/><rect x="770" y="540" width="60" height="44" rx="8" fill="var(--c-dark)"/></symbol><symbol id="p_torso_hoodie" viewBox="0 0 1600 900"><path d="M 662 640 L 662 522 Q 662 434 748 420 L 852 420 Q 938 434 938 522 L 938 640 Z" fill="var(--c-shirt)"/><path d="M 740 420 Q 800 456 860 420 L 860 448 Q 800 486 740 448 Z" fill="var(--c-shirt2)"/><path d="M 758 566 L 842 566 L 832 634 L 768 634 Z" fill="var(--c-shirt2)"/><line x1="786" y1="452" x2="782" y2="510" stroke="var(--c-dark)" stroke-width="5" stroke-linecap="round"/><line x1="814" y1="452" x2="818" y2="510" stroke="var(--c-dark)" stroke-width="5" stroke-linecap="round"/></symbol><symbol id="p_headwear_hardhat" viewBox="0 0 1600 900"><path d="M 714 258 Q 718 176 800 170 Q 882 176 886 258 Q 800 232 714 258 Z" fill="var(--c-accent)"/><path d="M 698 262 Q 800 232 902 262 L 902 278 Q 800 250 698 278 Z" fill="var(--c-accent)"/><rect x="790" y="176" width="20" height="78" rx="10" fill="var(--c-dark)"/></symbol><symbol id="p_headwear_chef_hat" viewBox="0 0 1600 900"><path d="M 714 240 Q 700 152 772 150 Q 800 118 828 150 Q 900 152 886 240 Q 800 216 714 240 Z" fill="var(--c-white)"/><path d="M 716 240 Q 800 216 884 240 L 884 268 Q 800 246 716 268 Z" fill="var(--c-white)"/><path d="M 716 260 Q 800 238 884 260 L 884 268 Q 800 246 716 268 Z" fill="var(--c-shirt2)"/></symbol><symbol id="p_prop_hand_pointer" viewBox="0 0 1600 900"><line x1="862" y1="604" x2="948" y2="470" stroke="var(--c-dark)" stroke-width="9" stroke-linecap="round"/><circle cx="948" cy="470" r="7" fill="var(--c-accent)"/></symbol></defs></svg>